<svg width="1519" height="1080" viewBox="0 0 1519 1080" fill="none" xmlns="http://www.w3.org/2000/svg">
<rect width="1518.75" height="1080" fill="#2253FF"/>
<path d="M1355.31 370.248L1378.69 361.513L1233.92 309L1089.76 361.513L1153.22 384.99V374.487C1181.97 363.573 1254.74 348.292 1315.85 374.487V384.99L1350.99 371.862V425.108C1349.17 426.018 1347.91 427.907 1347.91 430.09C1347.91 432.273 1349.17 434.162 1350.99 435.072V438.739C1348.94 436.062 1344.83 441.334 1344.83 483.839C1349.14 483.427 1358.51 482.851 1361.46 483.839C1360.85 467.158 1358.88 434.785 1355.92 438.739L1355.89 435.088C1357.73 434.185 1359 432.286 1359 430.09C1359 427.859 1357.69 425.934 1355.8 425.049L1355.31 370.248Z" fill="white"/>
<path d="M722.922 454.735C709.807 441.824 692.498 435.368 670.997 435.368C659.816 435.368 649.496 437.197 640.035 440.856C630.575 444.299 622.512 449.355 615.846 456.026V372.103H565.533V611.606H615.846V525.747C615.846 510.253 619.609 498.633 627.134 490.886C634.66 482.924 644.765 478.944 657.451 478.944C668.847 478.944 677.555 482.387 683.575 489.273C689.596 495.943 692.606 506.165 692.606 519.937V611.606H742.919V512.19C742.919 486.798 736.253 467.646 722.922 454.735Z" fill="white"/>
<path d="M437.592 615.479C419.746 615.479 402.437 613.112 385.666 608.378C369.11 603.429 355.779 597.081 345.674 589.334L363.412 549.955C373.088 557.056 384.591 562.759 397.922 567.062C411.253 571.366 424.583 573.518 437.914 573.518C452.75 573.518 463.716 571.366 470.811 567.062C477.906 562.544 481.454 556.626 481.454 549.31C481.454 543.93 479.304 539.519 475.004 536.076C470.919 532.417 465.543 529.512 458.878 527.361C452.428 525.209 443.612 522.842 432.431 520.259C415.23 516.171 401.147 512.082 390.181 507.994C379.216 503.905 369.755 497.342 361.8 488.304C354.059 479.266 350.189 467.216 350.189 452.153C350.189 439.026 353.737 427.191 360.832 416.647C367.928 405.888 378.571 397.388 392.762 391.147C407.167 384.907 424.691 381.787 445.332 381.787C459.738 381.787 473.821 383.508 487.582 386.951C501.343 390.394 513.384 395.344 523.704 401.799L507.578 441.501C486.722 429.666 465.866 423.748 445.01 423.748C430.389 423.748 419.531 426.115 412.435 430.849C405.555 435.583 402.115 441.824 402.115 449.571C402.115 457.317 406.092 463.127 414.048 467.001C422.218 470.659 434.581 474.317 451.137 477.975C468.338 482.064 482.422 486.152 493.387 490.241C504.353 494.329 513.706 500.785 521.447 509.608C529.402 518.43 533.38 530.373 533.38 545.436C533.38 558.347 529.725 570.183 522.414 580.942C515.319 591.486 504.568 599.878 490.162 606.119C475.756 612.359 458.233 615.479 437.592 615.479Z" fill="white"/>
<path d="M315.773 437.951V611.606H268.04V590.948C261.375 598.48 253.419 604.29 244.174 608.378C234.928 612.252 224.93 614.188 214.179 614.188C191.388 614.188 173.327 607.625 159.996 594.499C146.665 581.372 140 561.898 140 536.076V437.951H190.313V528.652C190.313 556.626 202.031 570.613 225.467 570.613C237.508 570.613 247.184 566.74 254.494 558.993C261.805 551.031 265.46 539.303 265.46 523.81V437.951H315.773Z" fill="white"/>
<path fill-rule="evenodd" clip-rule="evenodd" d="M966.51 437.951V611.606H918.455V591.594C905.984 606.657 887.923 614.188 864.271 614.188C847.93 614.188 833.095 610.53 819.764 603.214C806.648 595.897 796.327 585.461 788.802 571.904C781.277 558.347 777.514 542.639 777.514 524.778C777.514 506.918 781.277 491.209 788.802 477.652C796.327 464.096 806.648 453.659 819.764 446.343C833.095 439.026 847.93 435.368 864.271 435.368C886.418 435.368 903.726 442.362 916.197 456.349V437.951H966.51ZM872.979 572.872C885.665 572.872 896.201 568.569 904.586 559.961C912.972 551.139 917.164 539.411 917.164 524.778C917.164 510.146 912.972 498.526 904.586 489.918C896.201 481.095 885.665 476.684 872.979 476.684C860.079 476.684 849.435 481.095 841.05 489.918C832.665 498.526 828.472 510.146 828.472 524.778C828.472 539.411 832.665 551.139 841.05 559.961C849.435 568.569 860.079 572.872 872.979 572.872Z" fill="white"/>
<path d="M1085.34 441.824C1075.23 446.128 1067.17 452.476 1061.15 460.868V437.951H1013.09V611.606H1063.4V529.62C1063.4 513.481 1067.49 501.431 1075.66 493.469C1083.83 485.292 1095.12 481.203 1109.52 481.203C1111.46 481.203 1115.22 481.418 1120.81 481.849V435.368C1107.48 435.368 1095.66 437.52 1085.34 441.824Z" fill="white"/>
<path fill-rule="evenodd" clip-rule="evenodd" d="M1236.56 573.841C1245.59 573.841 1253.54 572.55 1260.42 569.967C1267.52 567.17 1274.08 562.866 1280.1 557.056L1306.87 586.106C1290.52 604.828 1266.66 614.188 1235.27 614.188C1215.7 614.188 1198.39 610.423 1183.34 602.891C1168.29 595.144 1156.68 584.493 1148.51 570.936C1140.34 557.379 1136.25 541.993 1136.25 524.778C1136.25 507.779 1140.23 492.5 1148.19 478.944C1156.36 465.172 1167.43 454.52 1181.41 446.988C1195.6 439.242 1211.51 435.368 1229.14 435.368C1245.69 435.368 1260.75 438.919 1274.29 446.02C1287.84 452.906 1298.59 463.02 1306.54 476.361C1314.71 489.488 1318.8 505.089 1318.8 523.164L1190.44 548.018C1194.09 556.626 1199.79 563.081 1207.53 567.385C1215.49 571.689 1225.16 573.841 1236.56 573.841ZM1229.14 473.456C1216.45 473.456 1206.13 477.545 1198.18 485.722C1190.22 493.899 1186.03 505.196 1185.6 519.614L1270.1 503.152C1267.73 494.114 1262.9 486.905 1255.58 481.526C1248.27 476.146 1239.46 473.456 1229.14 473.456Z" fill="white"/>
<path d="M1310.92 376.959V428.854C1256.71 407.602 1186.48 419.999 1158.15 428.854V376.959C1223.69 354.718 1287.31 367.692 1310.92 376.959Z" fill="white"/>
<path fill-rule="evenodd" clip-rule="evenodd" d="M933.131 696.015C936.536 697.945 940.367 698.91 944.624 698.91C948.597 698.91 952.116 698.03 955.18 696.271C957.928 694.672 960.17 692.458 961.906 689.629V698.484H967.695V635.315H961.651V662.289C959.939 659.596 957.754 657.501 955.095 656.003C952.031 654.243 948.54 653.364 944.624 653.364C940.367 653.364 936.536 654.328 933.131 656.258C929.782 658.131 927.143 660.77 925.214 664.175C923.284 667.581 922.319 671.554 922.319 676.094C922.319 680.578 923.284 684.551 925.214 688.013C927.143 691.418 929.782 694.086 933.131 696.015ZM953.563 691.418C951.066 692.837 948.228 693.546 945.05 693.546C941.928 693.546 939.119 692.837 936.621 691.418C934.124 689.942 932.138 687.899 930.662 685.288C929.186 682.621 928.449 679.556 928.449 676.094C928.449 672.575 929.186 669.51 930.662 666.9C932.138 664.289 934.124 662.274 936.621 660.855C939.119 659.38 941.928 658.642 945.05 658.642C948.228 658.642 951.066 659.38 953.563 660.855C956.117 662.274 958.103 664.289 959.522 666.9C960.998 669.51 961.736 672.575 961.736 676.094C961.736 679.556 960.998 682.621 959.522 685.288C958.103 687.899 956.117 689.942 953.563 691.418Z" fill="white"/>
<path d="M787.608 696.867C791.694 698.285 795.951 698.995 800.378 698.995C805.486 698.995 809.657 698.257 812.892 696.781C816.184 695.249 818.625 693.263 820.214 690.822C821.803 688.325 822.598 685.629 822.598 682.734C822.598 679.613 821.916 677.087 820.554 675.158C819.249 673.228 817.49 671.696 815.276 670.56C813.119 669.369 810.736 668.404 808.125 667.666C805.571 666.928 802.989 666.247 800.378 665.623C797.767 664.998 795.355 664.289 793.141 663.494C790.985 662.7 789.225 661.593 787.863 660.174C786.558 658.755 785.905 656.882 785.905 654.555C785.905 652.512 786.444 650.696 787.523 649.107C788.658 647.461 790.389 646.156 792.716 645.191C795.043 644.226 797.994 643.744 801.57 643.744C804.237 643.744 806.99 644.141 809.828 644.935C812.722 645.73 815.446 646.979 818 648.681L820.129 643.658C817.745 642.012 814.907 640.735 811.615 639.827C808.324 638.863 805.003 638.38 801.655 638.38C796.604 638.38 792.46 639.146 789.225 640.679C785.99 642.154 783.578 644.141 781.989 646.638C780.457 649.079 779.69 651.774 779.69 654.726C779.69 657.904 780.343 660.486 781.648 662.473C783.011 664.402 784.77 665.963 786.927 667.155C789.14 668.347 791.552 669.312 794.163 670.05C796.774 670.731 799.385 671.383 801.995 672.008C804.606 672.632 806.99 673.37 809.146 674.221C811.303 675.016 813.034 676.122 814.34 677.541C815.702 678.96 816.383 680.833 816.383 683.16C816.383 685.09 815.815 686.849 814.68 688.438C813.602 690.028 811.871 691.305 809.487 692.269C807.16 693.178 804.124 693.632 800.378 693.632C796.462 693.632 792.716 692.951 789.14 691.588C785.621 690.169 782.812 688.438 780.712 686.395L778.243 691.248C780.457 693.518 783.578 695.391 787.608 696.867Z" fill="white"/>
<path d="M839.474 695.504C841.744 697.775 844.979 698.91 849.179 698.91C850.938 698.91 852.641 698.654 854.287 698.144C855.99 697.633 857.437 696.838 858.629 695.76L856.5 691.418C854.741 692.951 852.528 693.717 849.86 693.717C847.363 693.717 845.433 693.007 844.071 691.588C842.766 690.169 842.113 688.155 842.113 685.544V658.812H855.734V653.789H842.113V643.914H836.068V653.789H828.066V658.812H836.068V685.884C836.068 690.028 837.204 693.234 839.474 695.504Z" fill="white"/>
<path d="M888.106 698.91C884.304 698.91 880.983 698.2 878.146 696.781C875.308 695.363 873.094 693.234 871.505 690.397C869.973 687.559 869.207 684.012 869.207 679.755V653.789H875.251V679.074C875.251 683.841 876.415 687.445 878.741 689.886C881.125 692.269 884.445 693.461 888.702 693.461C891.824 693.461 894.52 692.837 896.79 691.588C899.117 690.283 900.876 688.41 902.068 685.97C903.317 683.529 903.941 680.606 903.941 677.201V653.789H909.985V698.484H904.196V690.311C902.806 692.725 900.905 694.684 898.492 696.186C895.541 698.002 892.079 698.91 888.106 698.91Z" fill="white"/>
<path fill-rule="evenodd" clip-rule="evenodd" d="M1003.51 698.91C998.859 698.91 994.773 697.945 991.254 696.015C987.735 694.029 984.983 691.333 982.996 687.928C981.01 684.466 980.017 680.521 980.017 676.094C980.017 671.667 980.953 667.751 982.826 664.346C984.756 660.94 987.367 658.273 990.658 656.343C994.007 654.357 997.753 653.364 1001.9 653.364C1006.1 653.364 1009.81 654.328 1013.05 656.258C1016.34 658.131 1018.92 660.799 1020.8 664.261C1022.67 667.666 1023.6 671.61 1023.6 676.094C1023.6 676.378 1023.58 676.69 1023.52 677.031V677.967H985.949C986.148 680.715 986.867 683.184 988.104 685.374C989.637 687.928 991.737 689.942 994.404 691.418C997.128 692.837 1000.22 693.546 1003.68 693.546C1006.41 693.546 1008.93 693.064 1011.26 692.099C1013.64 691.134 1015.69 689.659 1017.39 687.672L1020.8 691.588C1018.81 693.972 1016.31 695.788 1013.3 697.037C1010.35 698.285 1007.09 698.91 1003.51 698.91ZM987.934 666.644C986.848 668.68 986.195 670.95 985.975 673.455H1017.83C1017.61 670.942 1016.92 668.671 1015.77 666.644C1014.41 664.09 1012.54 662.104 1010.15 660.685C1007.77 659.266 1005.02 658.557 1001.9 658.557C998.831 658.557 996.078 659.266 993.638 660.685C991.198 662.104 989.296 664.09 987.934 666.644Z" fill="white"/>
<path d="M1068.26 655.492C1065.53 654.073 1062.36 653.364 1058.72 653.364C1054.41 653.364 1050.69 654.3 1047.57 656.173C1045.06 657.632 1043.11 659.548 1041.7 661.923V653.789H1035.91V698.484H1041.95V674.987C1041.95 671.582 1042.58 668.688 1043.83 666.304C1045.13 663.863 1046.95 662.019 1049.27 660.77C1051.66 659.465 1054.44 658.812 1057.62 658.812C1061.87 658.812 1065.17 660.032 1067.49 662.473C1069.88 664.857 1071.07 668.404 1071.07 673.114V698.484H1077.11V672.519C1077.11 668.205 1076.32 664.63 1074.73 661.792C1073.2 658.954 1071.04 656.854 1068.26 655.492Z" fill="white"/>
<path d="M1107.57 698.91C1103.37 698.91 1100.14 697.775 1097.87 695.504C1095.6 693.234 1094.46 690.028 1094.46 685.884V658.812H1086.46V653.789H1094.46V643.914H1100.51V653.789H1114.13V658.812H1100.51V685.544C1100.51 688.155 1101.16 690.169 1102.46 691.588C1103.83 693.007 1105.76 693.717 1108.25 693.717C1110.92 693.717 1113.13 692.951 1114.89 691.418L1117.02 695.76C1115.83 696.838 1114.38 697.633 1112.68 698.144C1111.03 698.654 1109.33 698.91 1107.57 698.91Z" fill="white"/>
<path d="M1125.47 638.891L1125.9 661.366H1130.41L1130.83 638.891H1125.47Z" fill="white"/>
<path d="M1157.24 698.91C1153.55 698.91 1150.06 698.399 1146.77 697.377C1143.47 696.299 1140.89 694.965 1139.02 693.376L1141.74 688.609C1143.56 689.971 1145.89 691.163 1148.72 692.184C1151.56 693.149 1154.54 693.632 1157.66 693.632C1161.92 693.632 1164.99 692.979 1166.86 691.673C1168.73 690.311 1169.67 688.524 1169.67 686.31C1169.67 684.664 1169.13 683.387 1168.05 682.479C1167.03 681.514 1165.67 680.805 1163.96 680.351C1162.26 679.84 1160.36 679.414 1158.26 679.074C1156.16 678.733 1154.06 678.336 1151.96 677.882C1149.92 677.428 1148.04 676.775 1146.34 675.924C1144.64 675.016 1143.25 673.796 1142.17 672.263C1141.15 670.731 1140.64 668.688 1140.64 666.134C1140.64 663.693 1141.32 661.508 1142.68 659.578C1144.04 657.649 1146.03 656.145 1148.64 655.066C1151.31 653.931 1154.54 653.364 1158.34 653.364C1161.24 653.364 1164.13 653.761 1167.03 654.555C1169.92 655.293 1172.31 656.286 1174.18 657.535L1171.54 662.388C1169.55 661.026 1167.43 660.061 1165.16 659.493C1162.89 658.869 1160.61 658.557 1158.34 658.557C1154.32 658.557 1151.34 659.266 1149.41 660.685C1147.53 662.047 1146.6 663.807 1146.6 665.963C1146.6 667.666 1147.11 669 1148.13 669.965C1149.21 670.929 1150.6 671.696 1152.3 672.263C1154.06 672.774 1155.96 673.2 1158 673.54C1160.1 673.881 1162.18 674.306 1164.22 674.817C1166.32 675.271 1168.22 675.924 1169.92 676.775C1171.68 677.57 1173.07 678.733 1174.09 680.266C1175.17 681.741 1175.71 683.699 1175.71 686.14C1175.71 688.751 1174.97 691.021 1173.5 692.951C1172.08 694.823 1169.98 696.299 1167.2 697.377C1164.47 698.399 1161.15 698.91 1157.24 698.91Z" fill="white"/>
<path fill-rule="evenodd" clip-rule="evenodd" d="M1228.07 638.891L1200.83 698.484H1207.38L1214.51 682.564H1247.76L1254.89 698.484H1261.53L1234.28 638.891H1228.07ZM1245.48 677.456L1231.13 645.406L1216.79 677.456H1245.48Z" fill="white"/>
<path fill-rule="evenodd" clip-rule="evenodd" d="M1293.18 698.91C1289.32 698.91 1285.83 698.03 1282.71 696.271C1280.08 694.742 1277.89 692.671 1276.15 690.056V715H1270.11V653.789H1275.9V662.561C1277.63 659.737 1279.87 657.551 1282.62 656.003C1285.74 654.243 1289.26 653.364 1293.18 653.364C1297.44 653.364 1301.24 654.328 1304.59 656.258C1307.99 658.131 1310.66 660.799 1312.59 664.261C1314.52 667.666 1315.48 671.61 1315.48 676.094C1315.48 680.635 1314.52 684.607 1312.59 688.013C1310.66 691.418 1307.99 694.086 1304.59 696.015C1301.24 697.945 1297.44 698.91 1293.18 698.91ZM1292.75 693.546C1295.93 693.546 1298.77 692.837 1301.27 691.418C1303.76 689.942 1305.75 687.899 1307.23 685.288C1308.7 682.621 1309.44 679.556 1309.44 676.094C1309.44 672.632 1308.7 669.596 1307.23 666.985C1305.75 664.374 1303.76 662.331 1301.27 660.855C1298.77 659.38 1295.93 658.642 1292.75 658.642C1289.57 658.642 1286.71 659.38 1284.15 660.855C1281.66 662.331 1279.67 664.374 1278.2 666.985C1276.78 669.596 1276.07 672.632 1276.07 676.094C1276.07 679.556 1276.78 682.621 1278.2 685.288C1279.67 687.899 1281.66 689.942 1284.15 691.418C1286.71 692.837 1289.57 693.546 1292.75 693.546Z" fill="white"/>
<path fill-rule="evenodd" clip-rule="evenodd" d="M1340.4 696.271C1343.53 698.03 1347.02 698.91 1350.88 698.91C1355.13 698.91 1358.94 697.945 1362.28 696.015C1365.69 694.086 1368.36 691.418 1370.29 688.013C1372.22 684.607 1373.18 680.635 1373.18 676.094C1373.18 671.61 1372.22 667.666 1370.29 664.261C1368.36 660.799 1365.69 658.131 1362.28 656.258C1358.94 654.328 1355.13 653.364 1350.88 653.364C1346.96 653.364 1343.44 654.243 1340.32 656.003C1337.57 657.551 1335.33 659.737 1333.59 662.561V653.789H1327.8V715H1333.85V690.057C1335.59 692.671 1337.78 694.742 1340.4 696.271ZM1358.96 691.418C1356.47 692.837 1353.63 693.546 1350.45 693.546C1347.27 693.546 1344.41 692.837 1341.85 691.418C1339.35 689.942 1337.37 687.899 1335.89 685.288C1334.47 682.621 1333.76 679.556 1333.76 676.094C1333.76 672.632 1334.47 669.596 1335.89 666.985C1337.37 664.374 1339.35 662.331 1341.85 660.855C1344.41 659.38 1347.27 658.642 1350.45 658.642C1353.63 658.642 1356.47 659.38 1358.96 660.855C1361.46 662.331 1363.45 664.374 1364.92 666.985C1366.4 669.596 1367.14 672.632 1367.14 676.094C1367.14 679.556 1366.4 682.621 1364.92 685.288C1363.45 687.899 1361.46 689.942 1358.96 691.418Z" fill="white"/>
</svg>
