<svg width="337" height="192" viewBox="0 0 337 192" fill="none" xmlns="http://www.w3.org/2000/svg">
<g clip-path="url(#clip0_11_97)">
<path d="M310.49 129.119C311.463 129.119 312.284 129.463 312.953 130.153C313.642 130.842 313.987 131.673 313.987 132.646C313.987 133.599 313.642 134.42 312.953 135.11C312.284 135.799 311.463 136.143 310.49 136.143C309.517 136.143 308.686 135.799 307.996 135.11C307.327 134.42 306.993 133.599 306.993 132.646C306.993 131.673 307.327 130.842 307.996 130.153C308.686 129.463 309.517 129.119 310.49 129.119ZM308.392 142.742H312.71V180.816C312.71 183.593 312.203 185.611 311.189 186.868C310.196 188.145 308.827 188.783 307.084 188.783C305.645 188.783 304.023 188.439 302.218 187.75V183.918C303.354 184.506 304.377 184.8 305.29 184.8C306.445 184.8 307.307 184.323 307.875 183.37C308.219 182.762 308.392 181.495 308.392 179.569V142.742ZM319.947 142.742H324.296V147.578C325.594 145.672 326.962 144.253 328.401 143.32C329.841 142.367 331.341 141.891 332.902 141.891C334.078 141.891 335.335 142.266 336.673 143.016L334.453 146.605C333.561 146.219 332.811 146.027 332.203 146.027C330.784 146.027 329.415 146.615 328.097 147.791C326.78 148.946 325.776 150.75 325.087 153.204C324.56 155.089 324.296 158.9 324.296 164.638V175.829H319.947V142.742Z" fill="black"/>
<path d="M150.354 107.756L135.923 115.703C133.21 112.863 130.519 110.893 127.849 109.791C125.221 108.689 122.127 108.138 118.567 108.138C112.083 108.138 106.827 110.087 102.801 113.987C98.8168 117.843 96.8248 122.802 96.8248 128.863C96.8248 134.754 98.7532 139.565 102.61 143.294C106.467 147.024 111.532 148.889 117.804 148.889C125.56 148.889 131.6 146.24 135.923 140.942L149.591 150.287C142.174 159.908 131.706 164.719 118.186 164.719C106.022 164.719 96.4857 161.116 89.5773 153.911C82.7113 146.706 79.2783 138.272 79.2783 128.609C79.2783 121.912 80.9524 115.745 84.3007 110.109C87.6489 104.472 92.311 100.043 98.287 96.8215C104.305 93.6004 111.023 91.9899 118.44 91.9899C125.306 91.9899 131.473 93.3673 136.94 96.1222C142.408 98.8347 146.879 102.713 150.354 107.756ZM206.104 93.77H223.396V162.939H206.104V155.628C202.713 158.849 199.301 161.18 195.868 162.621C192.478 164.019 188.79 164.719 184.806 164.719C175.864 164.719 168.129 161.265 161.602 154.356C155.075 147.405 151.811 138.781 151.811 128.481C151.811 117.801 154.969 109.049 161.284 102.225C167.599 95.4017 175.27 91.9899 184.298 91.9899C188.451 91.9899 192.351 92.774 195.995 94.3421C199.64 95.9103 203.01 98.2626 206.104 101.399V93.77ZM187.858 108.011C182.475 108.011 178.004 109.918 174.444 113.732C170.884 117.504 169.104 122.357 169.104 128.291C169.104 134.267 170.905 139.183 174.507 143.04C178.152 146.897 182.624 148.825 187.922 148.825C193.389 148.825 197.924 146.939 201.526 143.167C205.129 139.353 206.93 134.373 206.93 128.227C206.93 122.209 205.129 117.335 201.526 113.605C197.924 109.875 193.368 108.011 187.858 108.011ZM243.04 68.2767H260.333V93.77H270.632V108.71H260.333V162.939H243.04V108.71H234.14V93.77H243.04V68.2767ZM286.779 65.2887C289.831 65.2887 292.438 66.3907 294.599 68.5946C296.803 70.7985 297.905 73.4686 297.905 76.6049C297.905 79.6989 296.824 82.3478 294.663 84.5517C292.501 86.7132 289.916 87.794 286.907 87.794C283.813 87.794 281.164 86.692 278.96 84.4881C276.798 82.2418 275.718 79.5293 275.718 76.3506C275.718 73.2991 276.798 70.6925 278.96 68.531C281.121 66.3695 283.728 65.2887 286.779 65.2887ZM278.07 93.77H295.489V162.939H278.07V93.77Z" fill="black"/>
<path d="M84.1345 20.4587C67.1345 30.3287 51.0645 39.5787 35.1345 48.8787C33.4345 49.8787 32.1345 49.3587 30.6545 48.4687C22.7445 43.6587 14.7546 38.9787 6.92457 34.0487C1.72457 30.7787 1.6045 24.7087 6.8545 21.4887C18.0045 14.6587 29.3246 8.10874 40.6646 1.59874C42.3145 0.591784 44.2022 0.0408357 46.1348 0.00218385C48.0674 -0.0364679 49.9756 0.43856 51.6646 1.37874C62.2246 7.37874 72.6245 13.6687 84.1345 20.4587Z" fill="#71CFF3"/>
<path d="M0.0946132 33.7688C3.79461 36.2288 34.0946 54.6388 45.6046 61.5288C48.2646 63.0988 49.2146 64.8188 49.0946 67.8388C48.7246 76.6388 48.6947 85.4488 48.4247 94.2588C48.1947 102.039 43.2646 104.749 36.5646 100.749C26.5646 94.7988 16.7246 88.7488 6.81458 82.7488C2.93458 80.3988 0.204642 76.9888 0.124642 72.4588C-0.125358 59.5388 0.0746132 46.6588 0.0946132 33.7688Z" fill="#0177C1"/>
<path d="M91.2947 32.7488C90.8247 47.0588 90.5346 60.3688 89.8746 73.6688C89.7646 75.5289 89.1839 77.3306 88.1869 78.9048C87.1899 80.4791 85.8093 81.7742 84.1747 82.6688C73.1747 88.8988 62.1046 94.9088 51.4746 100.779C52.6046 87.4388 51.7946 73.1488 52.3246 58.8888C52.3946 57.1288 52.1647 55.3388 54.0547 54.2488C67.8747 46.3188 78.4547 40.1188 91.2947 32.7488Z" fill="#0095E1"/>
</g>
<defs>
<clipPath id="clip0_11_97">
<rect width="336.165" height="191.939" fill="white"/>
</clipPath>
</defs>
</svg>
